<?xml version="1.0"?>
<svg width="200" height="200" xmlns="http://www.w3.org/2000/svg" xmlns:svg="http://www.w3.org/2000/svg">
 <!-- Created with SVG-edit - https://github.com/SVG-Edit/svgedit-->
 <defs>
  <marker id="se_marker_end_svg_3" markerHeight="5" markerUnits="strokeWidth" markerWidth="5" orient="auto" refX="50" refY="50" se_type="rightarrow" viewBox="0 0 100 100">
   <path d="m100,50l-100,40l30,-40l-30,-40z" fill="#000000" stroke="#000000" stroke-width="10"/>
  </marker>
 </defs>
 <g class="layer">
  <title>Layer 1</title>
  <path d="m154.179074,86.688408l0,-24.176806l-0.008636,0c-0.008636,-29.841379 -24.490761,-54.026717 -54.698336,-54.026717s-54.698336,24.193868 -54.698336,54.035248l0,0l0,24.168275l-19.784321,0l0,103.796472l148.965313,0l0,-103.796472l-19.775685,0zm-92.125331,-24.168275c0,0 0,0 0,0c0,-20.38905 16.787743,-36.973281 37.41836,-36.973281c20.647888,0 37.435631,16.584231 37.435631,36.96475c0,0 0,0 0,0l0,24.176806l-74.85399,0l0,-24.168275z" fill="#00ff00" id="svg_2" stroke="#00ff00" stroke-dasharray="null" stroke-linecap="null" stroke-linejoin="null" stroke-width="5"/>
  <line fill="none" id="svg_3" marker-end="url(#se_marker_end_svg_3)" stroke="#000000" stroke-dasharray="null" stroke-linecap="null" stroke-linejoin="null" stroke-width="15" x1="128.500001" x2="92.5" y1="178.699999" y2="124.699997"/>
 </g>
</svg>